<?xml version="1.0" encoding="utf-8"?>
<svg viewBox="0 0 192.756 192.756" xmlns="http://www.w3.org/2000/svg">
  <g fill-rule="evenodd" clip-rule="evenodd" transform="matrix(0.9999999999999999, 0, 0, 0.9999999999999999, -1.7763568394002505e-15, -1.7763568394002505e-15)">
    <path fill="#fff" fill-opacity="0" d="M0 0h192.756v192.756H0V0z"/>
    <path d="M 37.175 120.36 C 35.687 120.36 34.522 121.401 34.522 122.92 C 34.522 124.44 35.693 125.475 37.175 125.475 C 38.656 125.475 39.828 124.433 39.828 122.92 C 39.828 121.401 38.662 120.36 37.175 120.36 Z M 37.175 124.743 C 36.114 124.743 35.327 123.968 35.327 122.92 C 35.327 121.873 36.108 121.092 37.175 121.092 C 38.229 121.092 39.022 121.885 39.022 122.92 C 39.022 123.949 38.222 124.743 37.175 124.743 Z M 62.99 111.406 L 50.075 111.406 L 51.543 88.958 L 43.156 111.406 L 31.163 111.406 L 50.192 60.667 L 62.953 60.667 L 61.48 83.423 L 70.026 60.667 L 82.02 60.667 L 62.99 111.406 Z M 64.548 111.406 L 83.576 60.667 L 95.569 60.667 L 76.541 111.406 L 64.548 111.406 Z"/>
    <path d="M 32.78 93.917 C 16.021 113.598 0.212 139.785 14.176 151.844 C 27.707 163.53 44.62 156.611 56.152 151.998 C 67.684 147.385 195.147 92.033 195.147 92.033 C 196.377 91.418 196.147 90.649 194.609 91.033 C 193.989 91.188 55.845 128.626 55.845 128.626 C 38.315 133.547 18.327 122.822 32.78 93.917 Z"/>
    <path d="M 37.627 123.1 C 37.999 123.082 38.29 122.89 38.29 122.375 C 38.29 121.711 37.856 121.544 37.131 121.544 L 36.089 121.544 L 36.089 124.297 L 36.784 124.297 L 36.784 123.125 L 36.901 123.125 L 37.534 124.297 L 38.333 124.297 L 37.627 123.1 Z M 37.181 122.654 L 36.785 122.654 L 36.785 122.015 L 37.119 122.015 C 37.324 122.015 37.559 122.039 37.559 122.306 C 37.559 122.592 37.423 122.654 37.181 122.654 Z M 157.733 60.512 C 156.245 60.512 155.08 61.554 155.08 63.072 C 155.08 64.591 156.252 65.626 157.733 65.626 C 159.214 65.626 160.386 64.584 160.386 63.072 C 160.387 61.554 159.222 60.512 157.733 60.512 Z M 157.733 64.896 C 156.672 64.896 155.885 64.121 155.885 63.073 C 155.885 62.026 156.666 61.245 157.733 61.245 C 158.787 61.245 159.581 62.038 159.581 63.073 C 159.581 64.102 158.781 64.896 157.733 64.896 Z"/>
    <path d="M 158.186 63.252 C 158.558 63.234 158.85 63.042 158.85 62.527 C 158.85 61.863 158.415 61.696 157.691 61.696 L 156.649 61.696 L 156.649 64.448 L 157.343 64.448 L 157.343 63.277 L 157.461 63.277 L 158.093 64.448 L 158.893 64.448 L 158.186 63.252 Z M 157.739 62.806 L 157.343 62.806 L 157.343 62.167 L 157.678 62.167 C 157.882 62.167 158.118 62.192 158.118 62.459 C 158.118 62.744 157.981 62.806 157.739 62.806 Z M 149.831 69.124 L 153.054 60.667 L 116.46 60.667 L 103.895 75.889 L 109.696 60.667 L 97.549 60.667 L 78.673 111.406 L 90.666 111.406 L 98.725 90.188 L 99.277 111.406 L 136.076 111.326 L 139.579 101.566 L 125.588 101.566 L 130.185 89.266 L 141.716 89.266 L 145.264 79.81 L 133.733 79.81 L 137.686 69.124 L 149.831 69.124 Z M 111.175 108.023 L 110.406 81.578 L 128.539 61.669 L 111.175 108.023 Z"/>
  </g>
</svg>